<?xml version="1.0" encoding="UTF-8" standalone="no"?>
<!-- Generator: Adobe Illustrator 18.1.1, SVG Export Plug-In . SVG Version: 6.00 Build 0)  -->

<svg
   xmlns:dc="http://purl.org/dc/elements/1.1/"
   xmlns:cc="http://creativecommons.org/ns#"
   xmlns:rdf="http://www.w3.org/1999/02/22-rdf-syntax-ns#"
   xmlns:svg="http://www.w3.org/2000/svg"
   xmlns="http://www.w3.org/2000/svg"
   xmlns:sodipodi="http://sodipodi.sourceforge.net/DTD/sodipodi-0.dtd"
   xmlns:inkscape="http://www.inkscape.org/namespaces/inkscape"
   version="1.1"
   x="0px"
   y="0px"
   viewBox="0 0 545.36115 334"
   enable-background="new 0 0 984 566"
   xml:space="preserve"
   id="svg2"
   inkscape:version="0.91 r13725"
   sodipodi:docname="CWL-Logo-nofonts.svg"
   width="545.36115"
   height="334"><title
     id="title4653">Common Workflow Language logo</title><metadata
     id="metadata218"><rdf:RDF><cc:Work
         rdf:about=""><dc:format>image/svg+xml</dc:format><dc:type
           rdf:resource="http://purl.org/dc/dcmitype/StillImage" /><dc:title>Common Workflow Language logo</dc:title><cc:license
           rdf:resource="http://creativecommons.org/licenses/by-sa/3.0/" /><dc:rights><cc:Agent><dc:title>(C) Copyright 2016 The Common Workflow Language Project</dc:title></cc:Agent></dc:rights><dc:description>Released under the terms of the GNU Lesser General Public License, version 3 or any later version; or, at your option, of the Creative Commons Attribution-ShareAlike 3.0 Unported License.</dc:description><dc:contributor><cc:Agent><dc:title>Stian Soiland-Reyes</dc:title></cc:Agent></dc:contributor><dc:date>2017-05-17</dc:date></cc:Work><cc:License
         rdf:about="http://creativecommons.org/licenses/by-sa/3.0/"><cc:permits
           rdf:resource="http://creativecommons.org/ns#Reproduction" /><cc:permits
           rdf:resource="http://creativecommons.org/ns#Distribution" /><cc:requires
           rdf:resource="http://creativecommons.org/ns#Notice" /><cc:requires
           rdf:resource="http://creativecommons.org/ns#Attribution" /><cc:permits
           rdf:resource="http://creativecommons.org/ns#DerivativeWorks" /><cc:requires
           rdf:resource="http://creativecommons.org/ns#ShareAlike" /></cc:License></rdf:RDF></metadata><defs
     id="defs216" /><sodipodi:namedview
     pagecolor="#ffffff"
     bordercolor="#666666"
     borderopacity="1"
     objecttolerance="10"
     gridtolerance="10"
     guidetolerance="10"
     inkscape:pageopacity="0"
     inkscape:pageshadow="2"
     inkscape:window-width="1920"
     inkscape:window-height="1016"
     id="namedview214"
     showgrid="false"
     fit-margin-top="0"
     fit-margin-left="0"
     fit-margin-right="0"
     fit-margin-bottom="0"
     inkscape:zoom="2.2590536"
     inkscape:cx="286.2272"
     inkscape:cy="199.79862"
     inkscape:window-x="0"
     inkscape:window-y="27"
     inkscape:window-maximized="1"
     inkscape:current-layer="svg2" /><g
     style="font-style:normal;font-variant:normal;font-weight:300;font-stretch:normal;font-size:73.75px;line-height:100%;font-family:'Source Sans Pro';-inkscape-font-specification:'Source Sans Pro, Light';text-align:start;letter-spacing:0px;word-spacing:0px;writing-mode:lr-tb;text-anchor:start;fill:#8c8c8c;fill-opacity:1;stroke:none;stroke-width:1px;stroke-linecap:butt;stroke-linejoin:miter;stroke-opacity:1"
     id="text4489"><path
       d="m 184.30258,124.63168 c 6.26875,0 10.69375,-2.655 14.455,-6.9325 l -1.99125,-2.13875 c -3.54,3.90875 -7.30125,5.97375 -12.31625,5.97375 -10.4725,0 -16.9625,-8.7025 -16.9625,-22.198749 0,-13.49625 6.56375,-21.9775 17.2575,-21.9775 4.425,0 7.965,1.99125 10.62,5.015 l 1.99125,-2.28625 c -2.58125,-3.02375 -7.00625,-5.82625 -12.685,-5.82625 -12.31625,0 -20.72375,9.66125 -20.72375,25.075 0,15.487499 8.33375,25.296249 20.355,25.296249 z"
       style="fill:#8c8c8c;fill-opacity:1"
       id="path4609" /><path
       d="m 223.83373,124.63168 c 11.72625,0 20.06,-9.95625 20.06,-25.369999 0,-15.34 -8.33375,-25.00125 -20.06,-25.00125 -11.6525,0 -19.98625,9.66125 -19.98625,25.00125 0,15.413749 8.33375,25.369999 19.98625,25.369999 z m 0,-3.0975 c -9.8825,0 -16.44625,-8.77625 -16.44625,-22.272499 0,-13.4225 6.56375,-21.90375 16.44625,-21.90375 9.8825,0 16.44625,8.48125 16.44625,21.90375 0,13.496249 -6.56375,22.272499 -16.44625,22.272499 z"
       style="fill:#8c8c8c;fill-opacity:1"
       id="path4611" /><path
       d="m 255.05533,123.74668 3.17125,0 0,-31.933749 c 0,-3.9825 -0.295,-9.07125 -0.4425,-13.1275 l 0.295,0 3.835,10.84125 10.54625,28.909999 2.95,0 10.4725,-28.909999 3.76125,-10.84125 0.295,0 c -0.22125,4.05625 -0.4425,9.145 -0.4425,13.1275 l 0,31.933749 3.31875,0 0,-48.601249 -4.8675,0 -10.10375,28.541249 c -1.25375,3.54 -2.43375,7.15375 -3.6875,10.7675 l -0.295,0 c -1.25375,-3.61375 -2.58125,-7.2275 -3.835,-10.7675 l -10.1775,-28.541249 -4.79375,0 0,48.601249 z"
       style="fill:#8c8c8c;fill-opacity:1"
       id="path4613" /><path
       d="m 307.05484,123.74668 3.17125,0 0,-31.933749 c 0,-3.9825 -0.295,-9.07125 -0.4425,-13.1275 l 0.295,0 3.835,10.84125 10.54625,28.909999 2.95,0 10.4725,-28.909999 3.76125,-10.84125 0.295,0 c -0.22125,4.05625 -0.4425,9.145 -0.4425,13.1275 l 0,31.933749 3.31875,0 0,-48.601249 -4.8675,0 -10.10375,28.541249 c -1.25375,3.54 -2.43375,7.15375 -3.6875,10.7675 l -0.295,0 c -1.25375,-3.61375 -2.58125,-7.2275 -3.835,-10.7675 l -10.1775,-28.541249 -4.79375,0 0,48.601249 z"
       style="fill:#8c8c8c;fill-opacity:1"
       id="path4615" /><path
       d="m 375.9431,124.63168 c 11.72625,0 20.06,-9.95625 20.06,-25.369999 0,-15.34 -8.33375,-25.00125 -20.06,-25.00125 -11.6525,0 -19.98625,9.66125 -19.98625,25.00125 0,15.413749 8.33375,25.369999 19.98625,25.369999 z m 0,-3.0975 c -9.8825,0 -16.44625,-8.77625 -16.44625,-22.272499 0,-13.4225 6.56375,-21.90375 16.44625,-21.90375 9.8825,0 16.44625,8.48125 16.44625,21.90375 0,13.496249 -6.56375,22.272499 -16.44625,22.272499 z"
       style="fill:#8c8c8c;fill-opacity:1"
       id="path4617" /><path
       d="m 407.16471,123.74668 3.245,0 0,-30.163749 c 0,-4.72 -0.295,-9.145 -0.4425,-13.79125 l 0.295,0 5.4575,9.66125 20.5025,34.293749 3.54,0 0,-48.601249 -3.245,0 0,29.794999 c 0,4.72 0.295,9.44 0.4425,14.16 l -0.295,0 -5.4575,-9.66125 -20.5025,-34.293749 -3.54,0 0,48.601249 z"
       style="fill:#8c8c8c;fill-opacity:1"
       id="path4619" /><path
       d="m 173.01883,197.49668 3.6875,0 8.7025,-33.335 c 0.885,-3.835 1.9175,-7.15375 2.72875,-10.98875 l 0.295,0 c 0.81125,3.835 1.69625,7.15375 2.58125,10.98875 l 8.85,33.335 3.76125,0 10.84125,-48.60125 -3.31875,0 -6.12125,28.615 c -1.10625,5.31 -2.065,10.54625 -3.17125,15.85625 l -0.295,0 c -1.3275,-5.31 -2.58125,-10.54625 -3.90875,-15.85625 l -7.59625,-28.615 -3.46625,0 -7.59625,28.615 c -1.3275,5.31 -2.58125,10.62 -3.76125,15.85625 l -0.295,0 c -1.10625,-5.23625 -2.2125,-10.54625 -3.31875,-15.85625 l -6.12125,-28.615 -3.54,0 11.0625,48.60125 z"
       style="fill:#8c8c8c;fill-opacity:1"
       id="path4621" /><path
       d="m 239.96654,198.38168 c 11.72625,0 20.06,-9.95625 20.06,-25.37 0,-15.34 -8.33375,-25.00125 -20.06,-25.00125 -11.6525,0 -19.98625,9.66125 -19.98625,25.00125 0,15.41375 8.33375,25.37 19.98625,25.37 z m 0,-3.0975 c -9.8825,0 -16.44625,-8.77625 -16.44625,-22.2725 0,-13.4225 6.56375,-21.90375 16.44625,-21.90375 9.8825,0 16.44625,8.48125 16.44625,21.90375 0,13.49625 -6.56375,22.2725 -16.44625,22.2725 z"
       style="fill:#8c8c8c;fill-opacity:1"
       id="path4623" /><path
       d="m 271.18814,197.49668 3.3925,0 0,-22.34625 10.325,0 13.20125,22.34625 3.90875,0 -13.4225,-22.5675 c 7.67,-0.95875 12.46375,-5.4575 12.46375,-13.20125 0,-9.2925 -6.26875,-12.8325 -15.93,-12.8325 l -13.93875,0 0,48.60125 z m 3.3925,-25.14875 0,-20.57625 9.66125,0 c 8.555,0 13.34875,2.655 13.34875,9.95625 0,7.15375 -4.79375,10.62 -13.34875,10.62 l -9.66125,0 z"
       style="fill:#8c8c8c;fill-opacity:1"
       id="path4625" /><path
       d="m 311.37613,197.49668 3.3925,0 0,-16.74125 9.8825,-11.28375 16.0775,28.025 3.90875,0 -17.62625,-30.60625 15.4875,-17.995 -4.05625,0 -23.52625,26.9925 -0.1475,0 0,-26.9925 -3.3925,0 0,48.60125 z"
       style="fill:#8c8c8c;fill-opacity:1"
       id="path4627" /><path
       d="m 352.57242,197.49668 3.3925,0 0,-23.37875 19.54375,0 0,-2.95 -19.54375,0 0,-19.3225 23.08375,0 0,-2.95 -26.47625,0 0,48.60125 z"
       style="fill:#8c8c8c;fill-opacity:1"
       id="path4629" /><path
       d="m 387.71891,197.49668 25.8125,0 0,-2.95 -22.42,0 0,-45.65125 -3.3925,0 0,48.60125 z"
       style="fill:#8c8c8c;fill-opacity:1"
       id="path4631" /><path
       d="m 437.59349,198.38168 c 11.72625,0 20.06,-9.95625 20.06,-25.37 0,-15.34 -8.33375,-25.00125 -20.06,-25.00125 -11.6525,0 -19.98625,9.66125 -19.98625,25.00125 0,15.41375 8.33375,25.37 19.98625,25.37 z m 0,-3.0975 c -9.8825,0 -16.44625,-8.77625 -16.44625,-22.2725 0,-13.4225 6.56375,-21.90375 16.44625,-21.90375 9.8825,0 16.44625,8.48125 16.44625,21.90375 0,13.49625 -6.56375,22.2725 -16.44625,22.2725 z"
       style="fill:#8c8c8c;fill-opacity:1"
       id="path4633" /><path
       d="m 474.06863,197.49668 3.6875,0 8.7025,-33.335 c 0.885,-3.835 1.9175,-7.15375 2.72875,-10.98875 l 0.295,0 c 0.81125,3.835 1.69625,7.15375 2.58125,10.98875 l 8.85,33.335 3.76125,0 10.84125,-48.60125 -3.31875,0 -6.12125,28.615 c -1.10625,5.31 -2.065,10.54625 -3.17125,15.85625 l -0.295,0 c -1.3275,-5.31 -2.58125,-10.54625 -3.90875,-15.85625 l -7.59625,-28.615 -3.46625,0 -7.59625,28.615 c -1.3275,5.31 -2.58125,10.62 -3.76125,15.85625 l -0.295,0 c -1.10625,-5.23625 -2.2125,-10.54625 -3.31875,-15.85625 l -6.12125,-28.615 -3.54,0 11.0625,48.60125 z"
       style="fill:#8c8c8c;fill-opacity:1"
       id="path4635" /><path
       d="m 167.04508,271.24668 25.8125,0 0,-2.95 -22.42,0 0,-45.65125 -3.3925,0 0,48.60125 z"
       style="fill:#8c8c8c;fill-opacity:1"
       id="path4637" /><path
       d="m 208.75877,242.63168 c 1.99125,-5.7525 3.6875,-10.84125 5.38375,-16.815 l 0.295,0 c 1.69625,5.97375 3.3925,11.0625 5.38375,16.815 l 3.0975,9.07125 -17.2575,0 3.0975,-9.07125 z m -13.275,28.615 3.3925,0 5.7525,-16.6675 19.24875,0 5.67875,16.6675 3.54,0 -17.11,-48.60125 -3.3925,0 -17.11,48.60125 z"
       style="fill:#8c8c8c;fill-opacity:1"
       id="path4639" /><path
       d="m 240.79508,271.24668 3.245,0 0,-30.16375 c 0,-4.72 -0.295,-9.145 -0.4425,-13.79125 l 0.295,0 5.4575,9.66125 20.5025,34.29375 3.54,0 0,-48.60125 -3.245,0 0,29.795 c 0,4.72 0.295,9.44 0.4425,14.16 l -0.295,0 -5.4575,-9.66125 -20.5025,-34.29375 -3.54,0 0,48.60125 z"
       style="fill:#8c8c8c;fill-opacity:1"
       id="path4641" /><path
       d="m 305.52683,272.13168 c 6.3425,0 11.3575,-2.28625 14.38125,-5.53125 l 0,-19.24875 -14.8975,0 0,2.87625 11.6525,0 0,15.11875 c -2.36,2.36 -6.49,3.6875 -10.915,3.6875 -11.0625,0 -17.5525,-8.7025 -17.5525,-22.19875 0,-13.49625 6.85875,-21.9775 17.995,-21.9775 5.31,0 8.7025,2.28625 11.21,5.015 l 1.99125,-2.28625 c -2.58125,-2.72875 -6.71125,-5.82625 -13.275,-5.82625 -12.8325,0 -21.46125,9.66125 -21.46125,25.075 0,15.4875 8.33375,25.29625 20.87125,25.29625 z"
       style="fill:#8c8c8c;fill-opacity:1"
       id="path4643" /><path
       d="m 348.55766,272.13168 c 8.4075,0 16.44625,-4.35125 16.44625,-19.54375 l 0,-29.9425 -3.17125,0 0,29.57375 c 0,12.90625 -6.26875,16.815 -13.275,16.815 -6.85875,0 -12.90625,-3.90875 -12.90625,-16.815 l 0,-29.57375 -3.3925,0 0,29.9425 c 0,15.1925 7.965,19.54375 16.29875,19.54375 z"
       style="fill:#8c8c8c;fill-opacity:1"
       id="path4645" /><path
       d="m 384.49119,242.63168 c 1.99125,-5.7525 3.6875,-10.84125 5.38375,-16.815 l 0.295,0 c 1.69625,5.97375 3.3925,11.0625 5.38375,16.815 l 3.0975,9.07125 -17.2575,0 3.0975,-9.07125 z m -13.275,28.615 3.3925,0 5.7525,-16.6675 19.24875,0 5.67875,16.6675 3.54,0 -17.11,-48.60125 -3.3925,0 -17.11,48.60125 z"
       style="fill:#8c8c8c;fill-opacity:1"
       id="path4647" /><path
       d="m 433.58103,272.13168 c 6.3425,0 11.3575,-2.28625 14.38125,-5.53125 l 0,-19.24875 -14.8975,0 0,2.87625 11.6525,0 0,15.11875 c -2.36,2.36 -6.49,3.6875 -10.915,3.6875 -11.0625,0 -17.5525,-8.7025 -17.5525,-22.19875 0,-13.49625 6.85875,-21.9775 17.995,-21.9775 5.31,0 8.7025,2.28625 11.21,5.015 l 1.99125,-2.28625 c -2.58125,-2.72875 -6.71125,-5.82625 -13.275,-5.82625 -12.8325,0 -21.46125,9.66125 -21.46125,25.075 0,15.4875 8.33375,25.29625 20.87125,25.29625 z"
       style="fill:#8c8c8c;fill-opacity:1"
       id="path4649" /><path
       d="m 460.4606,271.24668 27.36125,0 0,-2.95 -23.96875,0 0,-21.3875 19.47,0 0,-2.95 -19.47,0 0,-18.36375 23.23125,0 0,-2.95 -26.62375,0 0,48.60125 z"
       style="fill:#8c8c8c;fill-opacity:1"
       id="path4651" /></g><text
     xml:space="preserve"
     style="font-style:normal;font-variant:normal;font-weight:300;font-stretch:normal;font-size:73.75px;line-height:100%;font-family:'Source Sans Pro';-inkscape-font-specification:'Source Sans Pro, Light';text-align:start;letter-spacing:0px;word-spacing:0px;writing-mode:lr-tb;text-anchor:start;fill:#8c8c8c;fill-opacity:0;stroke:none;stroke-width:1px;stroke-linecap:butt;stroke-linejoin:miter;stroke-opacity:1;"
     x="159.89133"
     y="123.74668"
     id="text4489-9"
     sodipodi:linespacing="100%"><tspan
       sodipodi:role="line"
       id="tspan4491-1"
       x="159.89133"
       y="123.74668">COMMON</tspan><tspan
       sodipodi:role="line"
       x="159.89133"
       y="197.49667"
       id="tspan4493-1">WORKFLOW</tspan><tspan
       sodipodi:role="line"
       x="159.89133"
       y="271.24667"
       id="tspan4495-9">LANGUAGE</tspan></text>
<g
     id="Alternative"
     display="none"
     style="display:none"
     transform="translate(-246,-102)"><g
       id="Tagline"
       display="inline"
       style="display:inline"><g
         id="g6"><path
           d="m 502.9,364.3 0,8.3 -8.4,0 0,-38.9 6.9,0 0.6,2.8 0.2,0 c 1.1,-1 2.4,-1.8 3.8,-2.5 1.4,-0.7 2.8,-1 4.3,-1 1.7,0 3.3,0.3 4.6,1 1.4,0.7 2.5,1.7 3.5,2.9 1,1.3 1.7,2.8 2.2,4.6 0.5,1.8 0.8,3.8 0.8,5.9 0,2.4 -0.3,4.6 -1,6.5 -0.7,1.9 -1.6,3.5 -2.7,4.8 -1.1,1.3 -2.4,2.3 -3.8,3 -1.4,0.7 -2.9,1 -4.4,1 -1.2,0 -2.4,-0.3 -3.6,-0.8 -1.1,-0.5 -2.2,-1.2 -3.2,-2.2 l 0.2,4.6 z m 0,-10.3 c 0.8,0.7 1.5,1.2 2.3,1.4 0.8,0.3 1.5,0.4 2.2,0.4 1.5,0 2.7,-0.7 3.7,-2 1,-1.3 1.5,-3.4 1.5,-6.4 0,-5.1 -1.6,-7.7 -4.9,-7.7 -1.6,0 -3.3,0.9 -4.9,2.6 l 0,11.7 z"
           id="path8"
           inkscape:connector-curvature="0"
           style="fill:#808080" /><path
           d="m 527.3,333.6 6.9,0 0.6,5 0.2,0 c 1,-1.9 2.3,-3.4 3.7,-4.3 1.5,-0.9 2.9,-1.4 4.4,-1.4 0.8,0 1.5,0 2,0.1 0.5,0.1 1,0.2 1.4,0.4 l -1.4,7.3 c -0.5,-0.2 -1,-0.3 -1.5,-0.3 -0.5,-0.1 -1,-0.1 -1.6,-0.1 -1.1,0 -2.2,0.4 -3.4,1.1 -1.2,0.8 -2.1,2.1 -2.9,4.1 l 0,16.5 -8.4,0 0,-28.4 z"
           id="path10"
           inkscape:connector-curvature="0"
           style="fill:#808080" /><path
           d="m 547.9,347.8 c 0,-2.4 0.4,-4.5 1.1,-6.3 0.7,-1.8 1.8,-3.4 3.1,-4.7 1.3,-1.3 2.8,-2.2 4.4,-2.9 1.7,-0.7 3.4,-1 5.2,-1 1.8,0 3.5,0.3 5.2,1 1.7,0.7 3.1,1.6 4.4,2.9 1.3,1.3 2.3,2.8 3.1,4.7 0.8,1.9 1.1,4 1.1,6.3 0,2.4 -0.4,4.5 -1.1,6.3 -0.8,1.9 -1.8,3.4 -3.1,4.7 -1.3,1.3 -2.8,2.2 -4.4,2.9 -1.7,0.7 -3.4,1 -5.2,1 -1.8,0 -3.5,-0.3 -5.2,-1 -1.7,-0.7 -3.2,-1.6 -4.4,-2.9 -1.2,-1.3 -2.3,-2.8 -3.1,-4.7 -0.7,-1.8 -1.1,-3.9 -1.1,-6.3 z m 8.6,0 c 0,2.5 0.4,4.4 1.3,5.9 0.9,1.5 2.2,2.2 3.9,2.2 1.7,0 3,-0.7 3.9,-2.2 0.9,-1.5 1.3,-3.4 1.3,-5.9 0,-2.5 -0.4,-4.4 -1.3,-5.9 -0.9,-1.5 -2.2,-2.2 -3.9,-2.2 -1.8,0 -3.1,0.7 -3.9,2.2 -0.8,1.5 -1.3,3.4 -1.3,5.9 z"
           id="path12"
           inkscape:connector-curvature="0"
           style="fill:#808080" /><path
           d="m 581.4,333.6 8.4,0 0,28.2 c 0,1.6 -0.2,3 -0.5,4.4 -0.3,1.4 -0.9,2.6 -1.7,3.6 -0.8,1 -1.8,1.9 -3.1,2.5 -1.3,0.6 -2.9,0.9 -4.9,0.9 -1.2,0 -2.2,-0.1 -3,-0.2 -0.8,-0.1 -1.5,-0.3 -2,-0.6 l 1.5,-6.2 c 0.4,0.1 0.7,0.2 1.1,0.3 0.3,0.1 0.7,0.1 1.1,0.1 1.1,0 1.9,-0.4 2.3,-1.1 0.4,-0.7 0.7,-1.9 0.7,-3.5 l 0,-28.4 z m 4.3,-4.1 c -1.4,0 -2.6,-0.4 -3.5,-1.2 -0.9,-0.8 -1.4,-1.9 -1.4,-3.2 0,-1.3 0.5,-2.3 1.4,-3.1 0.9,-0.8 2.1,-1.2 3.5,-1.2 1.4,0 2.6,0.4 3.5,1.2 0.9,0.8 1.4,1.9 1.4,3.1 0,1.3 -0.5,2.4 -1.4,3.2 -0.9,0.7 -2.1,1.2 -3.5,1.2 z"
           id="path14"
           inkscape:connector-curvature="0"
           style="fill:#808080" /><path
           d="m 595.7,347.8 c 0,-2.3 0.4,-4.4 1.1,-6.2 0.7,-1.8 1.8,-3.4 3,-4.7 1.2,-1.3 2.7,-2.3 4.3,-2.9 1.6,-0.7 3.3,-1 5,-1 2,0 3.8,0.3 5.3,1 1.5,0.7 2.8,1.6 3.8,2.9 1,1.2 1.8,2.7 2.3,4.3 0.5,1.7 0.7,3.5 0.7,5.4 0,0.8 0,1.5 -0.1,2.1 -0.1,0.6 -0.2,1.1 -0.2,1.5 l -17,0 c 0.4,2.2 1.2,3.8 2.6,4.7 1.4,0.9 2.9,1.5 4.8,1.5 2,0 4.1,-0.6 6.1,-1.9 l 2.8,5.1 c -1.5,1 -3.1,1.8 -4.8,2.3 -1.7,0.5 -3.5,0.9 -5.2,0.9 -2,0 -3.9,-0.3 -5.7,-1 -1.8,-0.7 -3.3,-1.6 -4.6,-2.9 -1.3,-1.3 -2.3,-2.8 -3,-4.7 -0.9,-1.9 -1.2,-4 -1.2,-6.4 z m 18.3,-2.9 c 0,-1.6 -0.4,-3 -1.1,-4 -0.7,-1 -2,-1.5 -3.7,-1.5 -1.3,0 -2.5,0.4 -3.5,1.3 -1,0.9 -1.7,2.3 -2,4.2 l 10.3,0 z"
           id="path16"
           inkscape:connector-curvature="0"
           style="fill:#808080" /><path
           d="m 625.4,347.8 c 0,-2.4 0.4,-4.5 1.2,-6.3 0.8,-1.9 1.9,-3.4 3.2,-4.7 1.3,-1.3 2.9,-2.2 4.7,-2.9 1.8,-0.7 3.7,-1 5.6,-1 1.8,0 3.3,0.3 4.8,0.9 1.4,0.6 2.6,1.4 3.6,2.4 l -3.8,5.2 c -1.3,-1.1 -2.7,-1.7 -4,-1.7 -2.1,0 -3.7,0.7 -4.9,2.2 -1.2,1.5 -1.8,3.4 -1.8,5.9 0,2.5 0.6,4.4 1.8,5.9 1.2,1.5 2.7,2.2 4.6,2.2 1,0 2,-0.2 2.8,-0.6 0.8,-0.4 1.6,-0.9 2.3,-1.4 l 3.4,5.3 c -1.4,1.2 -2.9,2.1 -4.6,2.7 -1.7,0.6 -3.3,0.9 -4.9,0.9 -2,0 -3.8,-0.3 -5.5,-1 -1.7,-0.7 -3.2,-1.6 -4.4,-2.9 -1.3,-1.3 -2.3,-2.8 -3,-4.7 -0.8,-1.9 -1.1,-4 -1.1,-6.4 z"
           id="path18"
           inkscape:connector-curvature="0"
           style="fill:#808080" /><path
           d="m 655,340.2 -3.9,0 0,-6.2 4.4,-0.3 1,-7.6 7,0 0,7.6 6.8,0 0,6.6 -6.8,0 0,11.4 c 0,1.6 0.3,2.8 1,3.5 0.7,0.7 1.6,1.1 2.7,1.1 0.5,0 0.9,-0.1 1.4,-0.2 0.5,-0.1 0.9,-0.2 1.3,-0.4 l 1.3,6.1 c -0.8,0.2 -1.7,0.5 -2.7,0.7 -1,0.2 -2.2,0.3 -3.6,0.3 -1.8,0 -3.3,-0.3 -4.5,-0.8 -1.2,-0.5 -2.3,-1.3 -3,-2.2 -0.8,-1 -1.4,-2.1 -1.7,-3.5 -0.4,-1.4 -0.5,-2.9 -0.5,-4.5 l 0,-11.6 z"
           id="path20"
           inkscape:connector-curvature="0"
           style="fill:#808080" /></g></g><g
       id="Type_1_"
       display="inline"
       style="display:inline"><g
         id="g23"><path
           d="m 487.8,247.5 c 0,-6.9 0.9,-13.2 2.7,-18.8 1.8,-5.6 4.3,-10.4 7.5,-14.3 3.2,-3.9 7.1,-6.9 11.7,-9.1 4.6,-2.1 9.7,-3.2 15.3,-3.2 5.1,0 9.5,1.1 13.3,3.2 3.8,2.1 6.8,4.5 9.2,7.2 l -2.7,2.9 c -2.4,-2.8 -5.3,-5.1 -8.6,-6.8 -3.3,-1.7 -7,-2.5 -11.2,-2.5 -5.1,0 -9.7,1 -13.7,2.9 -4.1,1.9 -7.5,4.7 -10.3,8.3 -2.8,3.6 -5,8 -6.4,13.1 -1.5,5.1 -2.2,10.8 -2.2,17.2 0,6.3 0.7,12.1 2.2,17.2 1.5,5.2 3.6,9.6 6.4,13.2 2.8,3.7 6.2,6.5 10.1,8.5 3.9,2 8.4,3 13.4,3 4.7,0 8.9,-0.9 12.5,-2.8 3.6,-1.9 7.1,-4.7 10.5,-8.4 l 2.7,2.7 c -3.4,3.9 -7.1,7 -11.2,9.2 -4.1,2.2 -9,3.3 -14.8,3.3 -5.4,0 -10.4,-1.1 -14.9,-3.3 -4.5,-2.2 -8.3,-5.3 -11.5,-9.3 -3.2,-4 -5.7,-8.8 -7.4,-14.5 -1.7,-5.6 -2.6,-11.9 -2.6,-18.9 z"
           id="path25"
           inkscape:connector-curvature="0"
           style="fill:#808080" /><path
           d="m 559.6,203.7 4.6,0 11.8,53.4 6.4,28.9 0.5,0 c 1.1,-4.8 2.2,-9.6 3.3,-14.4 1.2,-4.8 2.4,-9.6 3.6,-14.4 l 14.5,-53.4 4.8,0 14.5,53.4 7.2,28.9 0.5,0 c 1.1,-4.8 2.1,-9.6 3.1,-14.4 1,-4.8 2,-9.6 3.1,-14.4 l 11.8,-53.4 4.3,0 -20.3,88.2 -4.3,0 -17.1,-63.3 c -0.8,-3.5 -1.6,-6.8 -2.4,-9.9 -0.8,-3.1 -1.6,-6.4 -2.4,-9.9 l -0.5,0 c -0.8,3.5 -1.7,6.8 -2.5,9.9 -0.9,3.1 -1.7,6.4 -2.5,9.9 l -16.9,63.3 -4.3,0 -20.8,-88.4 z"
           id="path27"
           inkscape:connector-curvature="0"
           style="fill:#808080" /><path
           d="m 671.2,203.7 4.3,0 0,84.4 41.5,0 0,3.7 -45.8,0 0,-88.1 z"
           id="path29"
           inkscape:connector-curvature="0"
           style="fill:#808080" /></g></g><g
       id="Logo_1_"
       display="inline"
       style="display:inline"><g
         id="w_1_"
         enable-background="new    "><g
           id="w"><g
             id="g34"><linearGradient
               id="SVGID_1_"
               gradientUnits="userSpaceOnUse"
               x1="316.74921"
               y1="280.4678"
               x2="395.62491"
               y2="280.4678"><stop
                 offset="0"
                 style="stop-color:#A2B552"
                 id="stop37" /><stop
                 offset="1"
                 style="stop-color:#6F7A1B"
                 id="stop39" /></linearGradient><polygon
               points="374.1,337.1 395.6,315.6 359.8,279.8 395.6,243.9 372.7,223.8 316.7,279.8 "
               id="polygon41"
               style="fill:url(#SVGID_1_)" /></g></g></g><g
         id="l_1_"
         enable-background="new    "><g
           id="l"><g
             id="g45"><linearGradient
               id="SVGID_2_"
               gradientUnits="userSpaceOnUse"
               x1="316.74921"
               y1="373.29541"
               x2="412.625"
               y2="373.29541"><stop
                 offset="0"
                 style="stop-color:#C0D470"
                 id="stop48" /><stop
                 offset="1"
                 style="stop-color:#AB9B2A"
                 id="stop50" /></linearGradient><polygon
               points="318.3,387.4 318.2,387.5 366.2,436 387.9,414.1 359.9,385.6 412.6,332.5 391,310.6 316.7,385.8 "
               id="polygon52"
               style="fill:url(#SVGID_2_)" /></g></g></g><g
         id="c_1_"
         enable-background="new    "><g
           id="c"><g
             id="g56"><linearGradient
               id="SVGID_3_"
               gradientUnits="userSpaceOnUse"
               x1="366.23239"
               y1="246.7811"
               x2="366.23239"
               y2="101.9866"><stop
                 offset="0"
                 style="stop-color:#AB9B2A"
                 id="stop59" /><stop
                 offset="1"
                 style="stop-color:#C0D470"
                 id="stop61" /></linearGradient><polygon
               points="319.7,177.9 319.6,178 392.8,246.8 414.3,225.3 363,176 414.3,124.2 392.4,102 318.2,176.5 "
               id="polygon63"
               style="fill:url(#SVGID_3_)" /></g></g></g></g></g><g
     id="Logo"
     transform="translate(-246,-102)"><g
       enable-background="new    "
       id="w_copy_1_"><g
         id="w_copy"><g
           id="g69"><linearGradient
             y2="280.4678"
             x2="324.8757"
             y1="280.4678"
             x1="246"
             gradientUnits="userSpaceOnUse"
             id="SVGID_4_"><stop
               id="stop72"
               style="stop-color:#AD2B2F"
               offset="0" /><stop
               id="stop74"
               style="stop-color:#5B172C"
               offset="1" /></linearGradient><polygon
             style="fill:url(#SVGID_4_)"
             id="polygon76"
             points="289,279.8 324.9,243.9 301.9,223.8 246,279.8 303.4,337.1 324.9,315.6 " /></g></g></g><g
       enable-background="new    "
       id="l_copy_1_"><g
         id="l_copy"><g
           id="g80"><linearGradient
             y2="310.59079"
             x2="293.9379"
             y1="436"
             x1="293.9379"
             gradientUnits="userSpaceOnUse"
             id="SVGID_5_"><stop
               id="stop83"
               style="stop-color:#C03B70"
               offset="0" /><stop
               id="stop85"
               style="stop-color:#AB292A"
               offset="1" /></linearGradient><polygon
             style="fill:url(#SVGID_5_)"
             id="polygon87"
             points="295.5,436 317.1,414.1 289.2,385.6 341.9,332.5 320.2,310.6 246,385.8 247.6,387.4 247.4,387.5 " /></g></g></g><g
       enable-background="new    "
       id="c_copy_1_"><g
         id="c_copy"><g
           id="g91"><linearGradient
             y2="101.9866"
             x2="295.48318"
             y1="246.7811"
             x1="295.48318"
             gradientUnits="userSpaceOnUse"
             id="SVGID_6_"><stop
               id="stop94"
               style="stop-color:#AB292A"
               offset="0" /><stop
               id="stop96"
               style="stop-color:#C03B70"
               offset="1" /></linearGradient><polygon
             style="fill:url(#SVGID_6_)"
             id="polygon98"
             points="322,246.8 343.5,225.3 292.2,176 343.5,124.2 321.7,102 247.4,176.5 248.9,177.9 248.9,178 " /></g></g></g></g><g
     style="display:none"
     display="none"
     id="Type"
     transform="translate(-246,-102)"><text
       style="display:inline"
       id="text101"
       display="inline"
       transform="matrix(1.0019,0,0,1,409.3033,223.8533)"><tspan
         style="font-size:75.44889832px;font-family:SourceSansPro-Light;letter-spacing:-1;fill:#818181"
         id="tspan103"
         letter-spacing="-1"
         font-size="75.4489"
         y="0"
         x="0">C</tspan><tspan
         style="font-size:75.44889832px;font-family:SourceSansPro-Light;fill:#818181"
         id="tspan105"
         font-size="75.4489"
         y="0"
         x="40.700001">ommon</tspan><tspan
         style="font-size:75.44889832px;font-family:SourceSansPro-Light;fill:#818181"
         id="tspan107"
         font-size="75.4489"
         y="76.300003"
         x="0">W</tspan><tspan
         style="font-size:75.44889832px;font-family:SourceSansPro-Light;fill:#818181"
         id="tspan109"
         font-size="75.4489"
         y="76.300003"
         x="57.400002">orkf</tspan><tspan
         style="font-size:75.44889832px;font-family:SourceSansPro-Light;letter-spacing:-1;fill:#818181"
         id="tspan111"
         letter-spacing="-1"
         font-size="75.4489"
         y="76.300003"
         x="226.89999">l</tspan><tspan
         style="font-size:75.44889832px;font-family:SourceSansPro-Light;fill:#818181"
         id="tspan113"
         font-size="75.4489"
         y="76.300003"
         x="260.70001">o</tspan><tspan
         style="font-size:75.44889832px;font-family:SourceSansPro-Light;fill:#818181"
         id="tspan115"
         font-size="75.4489"
         y="76.300003"
         x="309.20001">w</tspan><tspan
         style="font-size:75.44889832px;font-family:SourceSansPro-Light;fill:#818181"
         id="tspan117"
         font-size="75.4489"
         y="152.7"
         x="0">L</tspan><tspan
         style="font-size:75.44889832px;font-family:SourceSansPro-Light;fill:#818181"
         id="tspan119"
         font-size="75.4489"
         y="152.7"
         x="35.799999">ang</tspan><tspan
         style="font-size:75.44889832px;font-family:SourceSansPro-Light;letter-spacing:-1;fill:#818181"
         id="tspan121"
         letter-spacing="-1"
         font-size="75.4489"
         y="152.7"
         x="169.2">u</tspan><tspan
         style="font-size:75.44889832px;font-family:SourceSansPro-Light;fill:#818181"
         id="tspan123"
         font-size="75.4489"
         y="152.7"
         x="215.39999">a</tspan><tspan
         style="font-size:75.44889832px;font-family:SourceSansPro-Light;fill:#818181"
         id="tspan125"
         font-size="75.4489"
         y="152.7"
         x="254.3">ge</tspan></text>
</g><g
     style="display:none"
     display="none"
     id="Type_copy"
     transform="translate(-246,-102)"><text
       style="font-size:200px;font-family:SourceSansPro-ExtraLight;display:inline;fill:#808080"
       id="text155"
       font-size="200"
       display="inline"
       transform="matrix(1.0019,0,0,1,409.3036,344.3976)">CWL</text>
<g
       style="display:inline"
       id="g157"
       display="inline"><path
         style="fill:#808080"
         inkscape:connector-curvature="0"
         id="path159"
         d="m 420.5,278 c 0,-10.4 1.3,-19.8 4,-28.2 2.7,-8.4 6.4,-15.5 11.2,-21.4 4.8,-5.9 10.7,-10.4 17.5,-13.6 6.9,-3.2 14.5,-4.8 22.9,-4.8 7.6,0 14.3,1.6 19.9,4.8 5.7,3.2 10.2,6.8 13.7,10.8 l -4,4.4 c -3.6,-4.3 -7.9,-7.7 -12.8,-10.2 -4.9,-2.5 -10.6,-3.8 -16.8,-3.8 -7.6,0 -14.5,1.4 -20.5,4.3 -6.1,2.9 -11.2,7 -15.4,12.4 -4.2,5.4 -7.4,11.9 -9.6,19.6 -2.2,7.7 -3.3,16.2 -3.3,25.7 0,9.5 1.1,18.1 3.3,25.8 2.2,7.7 5.4,14.3 9.6,19.8 4.2,5.5 9.2,9.7 15.1,12.7 5.9,3 12.6,4.5 20,4.5 7.1,0 13.3,-1.4 18.7,-4.2 5.4,-2.8 10.7,-7 15.7,-12.6 l 4,4 c -5.1,5.9 -10.7,10.5 -16.7,13.8 -6.1,3.3 -13.5,5 -22.1,5 -8.1,0 -15.6,-1.6 -22.2,-4.9 -6.7,-3.3 -12.4,-7.9 -17.2,-13.9 -4.8,-6 -8.5,-13.2 -11.1,-21.7 -2.6,-8.5 -3.9,-17.9 -3.9,-28.3 z" /><path
         style="fill:#808080"
         inkscape:connector-curvature="0"
         id="path161"
         d="m 527.9,212.4 6.8,0 17.6,80 9.6,43.2 0.8,0 c 1.6,-7.2 3.3,-14.4 5,-21.6 1.7,-7.2 3.5,-14.4 5.4,-21.6 l 21.6,-80 7.2,0 21.6,80 10.8,43.2 0.8,0 c 1.6,-7.2 3.1,-14.4 4.6,-21.6 1.5,-7.2 3,-14.4 4.6,-21.6 l 17.6,-80 6.4,0 -30.5,132 -6.4,0 -25.6,-94.8 c -1.2,-5.2 -2.4,-10.1 -3.6,-14.8 -1.2,-4.7 -2.4,-9.6 -3.6,-14.8 l -0.8,0 c -1.2,5.2 -2.5,10.1 -3.8,14.8 -1.3,4.7 -2.6,9.6 -3.8,14.8 l -25.2,94.8 -6.4,0 -30.7,-132 z" /><path
         style="fill:#808080"
         inkscape:connector-curvature="0"
         id="path163"
         d="m 695,212.4 6.4,0 0,126.4 62.1,0 0,5.6 -68.5,0 0,-132 z" /></g></g><g
     id="Black_x2F_white_Logo"
     display="none"
     style="display:none"
     transform="translate(-246,-102)"><g
       id="Rectangle_1_1_"
       display="inline"
       enable-background="new    "
       style="display:inline"><g
         id="Rectangle_1"><g
           id="g168"><rect
             x="158.89999"
             y="101"
             width="323"
             height="321"
             id="rect170"
             style="clip-rule:evenodd;fill-rule:evenodd" /></g></g></g><g
       id="Rectangle_1_copy_1_"
       display="inline"
       enable-background="new    "
       style="display:inline"><g
         id="Rectangle_1_copy_2_"><g
           id="g174"><rect
             x="472.89999"
             y="101"
             width="333"
             height="321"
             id="rect176"
             style="clip-rule:evenodd;fill:#ffffff;fill-rule:evenodd" /></g></g></g><g
       id="w_copy_2_1_"
       display="inline"
       enable-background="new    "
       style="display:inline"><g
         id="w_copy_2"><g
           id="g180"><polygon
             points="295.7,258.8 281.4,273.2 295.7,287.6 295.8,287.6 330.4,322 344.4,308 310.1,273.3 346.4,237 331.4,223 295.8,258.8 "
             id="polygon182"
             style="fill:#ffffff" /></g></g></g><g
       id="l_copy_2_1_"
       display="inline"
       enable-background="new    "
       style="display:inline"><g
         id="l_copy_2_2_"><g
           id="g186"><polygon
             points="282.4,345.4 282.4,345.5 314.4,378 328.8,363.3 310.2,344.2 345.4,309 331.4,295 281.4,344.3 "
             id="polygon188"
             style="fill:#ffffff" /></g></g></g><g
       id="c_copy_2_1_"
       display="inline"
       enable-background="new    "
       style="display:inline"><g
         id="c_copy_2"><g
           id="g192"><polygon
             points="283.3,204.9 283.3,204.9 332.1,251.1 346.4,236.7 312.2,203.6 346.4,168.9 331.8,154 282.4,204 "
             id="polygon194"
             style="fill:#ffffff" /></g></g></g><g
       id="w_copy_3_1_"
       display="inline"
       enable-background="new    "
       style="display:inline"><g
         id="w_copy_3_2_"><g
           id="g198"><polygon
             points="626.7,258.8 612.4,273.2 650.6,311.7 665,297.2 641.1,273.3 677.4,237 662.4,223 626.8,258.8 "
             id="polygon200" /></g></g></g><g
       id="l_copy_3_1_"
       display="inline"
       enable-background="new    "
       style="display:inline"><g
         id="l_copy_3"><g
           id="g204"><polygon
             points="613.4,345.4 613.4,345.5 645.4,378 659.8,363.3 641.2,344.2 676.3,308.6 661.9,293.9 612.4,344.3 "
             id="polygon206" /></g></g></g><g
       id="c_copy_3_1_"
       display="inline"
       enable-background="new    "
       style="display:inline"><g
         id="c_copy_3_2_"><g
           id="g210"><polygon
             points="614.3,204.9 614.3,204.9 663.1,251.1 677.4,236.7 643.2,203.6 677.4,168.9 662.8,154 613.4,204 "
             id="polygon212" /></g></g></g></g></svg>