<svg version="1.1" xmlns="http://www.w3.org/2000/svg" xmlns:xlink="http://www.w3.org/1999/xlink" width="535" height="190"><style xmlns="http://www.w3.org/1999/xhtml"></style><defs/><g transform="translate(0,0)"><g><rect fill="#FFFFFF" stroke="none" x="0" y="0" width="535" height="190"/></g><g transform="translate(0,0) matrix(1,0,0,1,10,10)"><g><g transform="translate(0,0) scale(2.8,1.6)"><g><path fill="#a4c2f4" stroke="none" d="M 0 0 L 100 0 Q 100 0 100 0 L 100 100 Q 100 100 100 100 L 0 100 Q 0 100 0 100 L 0 0 Q 0 0 0 0 Z"/><g transform="scale(0.35714285714285715,0.625)"><path fill="none" stroke="none" d="M 0 0 L 280 0 Q 280 0 280 0 L 280 160 Q 280 160 280 160 L 0 160 Q 0 160 0 160 L 0 0 Q 0 0 0 0 Z"/><path fill="none" stroke="#ffffff" d="M 0 0 M 0 0 L 280 0 Q 280 0 280 0 L 280 160 Q 280 160 280 160 L 0 160 Q 0 160 0 160 L 0 0 Q 0 0 0 0 Z" stroke-miterlimit="10" stroke-width="2"/></g></g></g></g></g><g transform="matrix(1,0,0,1,20,18)"><g transform="translate(236,0) matrix(1,0,0,1,0,0) translate(-236,0)"><g><rect fill="rgb(0,0,0)" stroke="none" x="0" y="0" width="262" height="14" fill-opacity="0"/></g></g><g transform="translate(236,0) matrix(1,0,0,1,0,0) translate(-236,0)"><g><rect fill="rgb(0,0,0)" stroke="none" x="0" y="0" width="262" height="14" fill-opacity="0"/></g></g><g transform="translate(236,0) matrix(1,0,0,1,0,0) translate(-236,0)"><g><rect fill="rgb(0,0,0)" stroke="none" x="118" y="0" width="25" height="14" fill-opacity="0"/></g></g><g transform="translate(236,0) matrix(1,0,0,1,0,0) translate(-236,0)"><g><rect fill="rgb(0,0,0)" stroke="none" x="118" y="0" width="25" height="14" fill-opacity="0"/></g><text fill="rgb(0, 0, 0)" stroke="none" font-family="Arial" font-size="12px" font-style="normal" font-weight="normal" text-decoration="" line-height="14px" x="118" y="12">Host</text></g></g><g transform="matrix(1,0,0,1,180.5,85.5)"><g transform="translate(0,0)"><g transform="translate(-337,-92) translate(156.5,6.5) matrix(1,0,0,1,0,0)"><g><path fill="none" stroke="#000000" d="M 330 90 L 185 90" stroke-miterlimit="10" stroke-width="2"/></g></g></g></g><g transform="translate(0,0) matrix(-1,1.2246467991473532e-16,-1.2246467991473532e-16,-1,330,105)"><g><g transform="translate(0,0) scale(0.3,0.3)"><g transform="translate(50,0) translate(0,0) rotate(89.99998127603168,0,0) translate(0,0)"><g><g transform="scale(3.3333333333333335,3.3333333333333335)"><path fill="rgb(0,0,0)" stroke="#000000" d="M 0 0 C 1.4141004e-15 11.547006 12.500001000000001 18.763884 22.5 12.990381000000001 C 27.141015 10.310889 30 5.3589839999999995 30 0" fill-opacity="0" stroke-miterlimit="10" stroke-width="2"/></g></g></g><g><path fill="#FFFFFF" stroke="none" d="M 97 50 A 41 41 0 1 0 96.9999795000017 50.04099999316668 Z"/><g transform="scale(3.3333333333333335,3.3333333333333335)"><path fill="none" stroke="#000000" d="M 16.8 2.700000000000001 C 23.59310181 2.700000000000001 29.1 8.20689819 29.1 15 C 29.1 21.79310181 23.59310181 27.299999999999997 16.8 27.299999999999997 C 10.006898190000001 27.299999999999997 4.500000000000002 21.79310181 4.500000000000002 15 C 4.500000000000002 8.20689819 10.006898190000001 2.700000000000001 16.8 2.700000000000001 Z" stroke-miterlimit="10" stroke-width="2"/></g></g></g></g></g><g transform="translate(0,0) matrix(-1,1.2246467991473532e-16,-1.2246467991473532e-16,-1,185,105)"><g><g transform="translate(0,0) scale(0.3,0.3)"><g transform="translate(50,0) translate(0,0) rotate(89.99998127603168,0,0) translate(0,0)"><g><g transform="scale(3.3333333333333335,3.3333333333333335)"><path fill="rgb(0,0,0)" stroke="#000000" d="M 0 0 C 1.4141004e-15 11.547006 12.500001000000001 18.763884 22.5 12.990381000000001 C 27.141015 10.310889 30 5.3589839999999995 30 0" fill-opacity="0" stroke-miterlimit="10" stroke-width="2"/></g></g></g><g><path fill="#FFFFFF" stroke="none" d="M 97 50 A 41 41 0 1 0 96.9999795000017 50.04099999316668 Z"/><g transform="scale(3.3333333333333335,3.3333333333333335)"><path fill="none" stroke="#000000" d="M 16.8 2.700000000000001 C 23.59310181 2.700000000000001 29.1 8.20689819 29.1 15 C 29.1 21.79310181 23.59310181 27.299999999999997 16.8 27.299999999999997 C 10.006898190000001 27.299999999999997 4.500000000000002 21.79310181 4.500000000000002 15 C 4.500000000000002 8.20689819 10.006898190000001 2.700000000000001 16.8 2.700000000000001 Z" stroke-miterlimit="10" stroke-width="2"/></g></g></g></g></g><g transform="matrix(1,0,0,1,127,111)"><g transform="translate(34,0) matrix(1,0,0,1,0,0) translate(-34,0)"><g><rect fill="rgb(0,0,0)" stroke="none" x="0" y="0" width="87" height="15" fill-opacity="0"/></g></g><g transform="translate(34,0) matrix(1,0,0,1,0,0) translate(-34,0)"><g><rect fill="rgb(0,0,0)" stroke="none" x="0" y="0" width="87" height="14" fill-opacity="0"/></g></g><g transform="translate(34,0) matrix(1,0,0,1,0,0) translate(-34,0)"><g><rect fill="rgb(0,0,0)" stroke="none" x="17" y="0" width="53" height="14" fill-opacity="0"/></g></g><g transform="translate(34,0) matrix(1,0,0,1,0,0) translate(-34,0)"><g><rect fill="rgb(0,0,0)" stroke="none" x="17" y="0" width="53" height="14" fill-opacity="0"/></g><text fill="rgb(0, 0, 0)" stroke="none" font-family="Arial" font-size="12px" font-style="normal" font-weight="normal" text-decoration="" line-height="14px" x="17" y="12">Port</text><text fill="rgb(0, 0, 0)" stroke="none" font-family="Arial" font-size="12px" font-style="normal" font-weight="normal" text-decoration="" line-height="14px" x="43" y="12">8080</text></g></g><g transform="matrix(1,0,0,1,280,110)"><g transform="translate(34,0) matrix(1,0,0,1,0,0) translate(-34,0)"><g><rect fill="rgb(0,0,0)" stroke="none" x="0" y="0" width="72" height="14" fill-opacity="0"/></g></g><g transform="translate(34,0) matrix(1,0,0,1,0,0) translate(-34,0)"><g><rect fill="rgb(0,0,0)" stroke="none" x="0" y="0" width="72" height="14" fill-opacity="0"/></g></g><g transform="translate(34,0) matrix(1,0,0,1,0,0) translate(-34,0)"><g><rect fill="rgb(0,0,0)" stroke="none" x="17" y="0" width="38" height="14" fill-opacity="0"/></g></g><g transform="translate(34,0) matrix(1,0,0,1,0,0) translate(-34,0)"><g><rect fill="rgb(0,0,0)" stroke="none" x="17" y="0" width="38" height="14" fill-opacity="0"/></g><text fill="rgb(0, 0, 0)" stroke="none" font-family="Arial" font-size="12px" font-style="normal" font-weight="normal" text-decoration="" line-height="14px" x="17" y="12">Port</text><text fill="rgb(0, 0, 0)" stroke="none" font-family="Arial" font-size="12px" font-style="normal" font-weight="normal" text-decoration="" line-height="14px" x="42" y="12">80</text></g></g><g transform="translate(0.5,0.5) matrix(1,0,0,1,435,50)"><g><g transform="translate(0,0) scale(2,2)"><g><g><path fill="#676767" stroke="rbga(0,0,0,0)" d="M 34.91351 16.02486 L 35.08973 15.93568 L 35.15622 15.76108 L 35.12757 15.78 L 34.93243 15.66703 L 34.72216 15.62919 L 34.64108 15.88162 L 34.73405 16.01189 L 34.91351 16.02486 Z" stroke-miterlimit="10"/></g><g><path fill="#676767" stroke="rbga(0,0,0,0)" d="M 35.84378 17.19622 L 35.76216 16.91784 L 34.05622 15.81081 L 33.64541 15.78541 L 33.27784 16.18919 L 33.09351 16.69297 L 33.24649 16.97081 L 35.84378 17.19622 Z" stroke-miterlimit="10"/></g><g><path fill="#676767" stroke="rbga(0,0,0,0)" d="M 9.687568 15.86324 L 9.491351 16.56919 L 10.12757 15.84649 L 10.18054 15.62162 L 9.906486 15.51405 L 9.687568 15.86324 Z" stroke-miterlimit="10"/></g><g><path fill="#676767" stroke="rbga(0,0,0,0)" d="M 10.07297 14.72541 L 10.07081 14.76324 L 8.977838 15.2773 L 10.35946 15.00432 L 10.07297 14.72541 Z" stroke-miterlimit="10"/></g><g><path fill="#676767" stroke="rbga(0,0,0,0)" d="M 10.89946 16.09405 L 11.03405 15.98649 L 11.15189 15.71351 L 11.13243 15.75027 L 11.22757 15.42865 L 10.96703 15.39081 L 10.76865 15.44108 L 10.63838 15.58054 L 10.57243 15.81081 L 10.74649 16.03514 L 10.89946 16.09405 Z" stroke-miterlimit="10"/></g><g><path fill="#676767" stroke="rbga(0,0,0,0)" d="M 32.71351 11.17514 L 32.51676 11.06649 L 31.6427 11.01243 L 31.27514 10.70216 L 31.72 9.063243 L 29.54595 12.58054 L 28.97514 13.00811 L 30.03351 13.41081 L 32.71351 11.17514 Z" stroke-miterlimit="10"/></g><g><path fill="#676767" stroke="rbga(0,0,0,0)" d="M 34.76324 20.92378 L 36.92649 24.36 L 35.18162 21.11189 L 34.76324 20.92378 Z" stroke-miterlimit="10"/></g><g><path fill="#676767" stroke="rbga(0,0,0,0)" d="M 20.00216 -0.04108108 C 8.933514 -0.04108108 -0.04108108 8.931351 -0.04108108 20.00054 C -0.04108108 31.06973 8.934054 40.04108 20.00216 40.04108 C 31.06973 40.04108 40.04108 31.06919 40.04108 20.00054 C 40.04108 8.930811 31.06973 -0.04108108 20.00216 -0.04108108 L 20.00216 -0.04108108 Z M 26.68054 13.72811 L 26.63405 14.29405 L 25.81351 14.48486 L 25.46703 13.61027 L 25.46054 11.90595 L 26.68054 13.72811 L 26.68054 13.72811 Z M 26.52649 9.316216 L 26.01351 9.716216 L 25.21405 9.638919 L 25.14865 9.476216 L 25.17405 8.739459 L 25.76649 8.87027 L 26.38703 8.730811 L 26.67838 8.848108 L 26.52649 9.316216 L 26.52649 9.316216 Z M 15.56054 3.025405 L 15.91946 2.553514 C 16.51784 2.416216 17.12595 2.306486 17.74757 2.228108 L 15.80216 3.500541 L 14.79838 3.539459 L 15.56054 3.025405 L 15.56054 3.025405 Z M 13.58595 3.398378 L 13.96162 3.472432 L 15.26703 4.213514 L 15.58054 4.261081 L 15.05784 4.763243 L 14.21297 4.649189 L 13.55243 4.124865 L 13.58595 3.398378 L 13.58595 3.398378 Z M 12.81135 3.567568 L 12.89027 3.681622 L 12.67135 3.948108 L 12.27351 4.118378 L 11.90703 4.140541 L 11.83568 4.044324 C 12.15838 3.881081 12.47892 3.70973 12.81135 3.567568 L 12.81135 3.567568 Z M 10.87838 5.857838 L 11.55405 5.113514 L 11.81622 5.248649 L 11.71784 5.732432 L 11.36649 6.146486 L 10.87622 6.074595 L 10.87838 5.857838 L 10.87838 5.857838 Z M 7.351351 7.324865 L 7.881081 6.957297 L 7.783784 6.859459 C 8.337838 6.348649 8.921081 5.864865 9.536216 5.427027 L 9.624324 5.458919 L 10.49892 5.289189 L 10.47351 6.267027 L 9.462162 7.355135 L 8.167027 7.952432 L 7.285946 7.448649 L 7.351351 7.324865 L 7.351351 7.324865 Z M 2.337297 21.93838 L 1.973514 21.12432 C 1.97027 21.06432 1.963784 21.00378 1.963784 20.94378 L 2.351351 21.60865 L 2.337297 21.93838 L 2.337297 21.93838 Z M 18.99514 33.16703 L 17.01892 34.62486 L 14.79568 37.47243 C 13.50919 37.08486 12.29243 36.54865 11.14595 35.90054 L 11.0827 33.62216 L 8.958378 29.51297 L 8.991351 28.71189 L 9.602162 27.24973 L 9.588108 26.26703 L 8.918378 25.52595 L 4.017838 23.36486 L 2.39027 20.59892 L 1.943243 20.43459 L 1.934595 20.46324 C 1.933514 20.40324 1.924865 20.34595 1.924865 20.28919 C 1.888649 15.48919 3.742162 11.12378 6.771351 7.863784 L 7.328649 8.174054 L 10.40919 7.540541 L 10.77351 7.328108 L 10.85459 7.496216 L 10.63622 7.908108 L 10.59459 8.088108 L 12.73514 5.104865 L 12.89027 5.047027 L 13.03027 5.045946 L 13.15405 5.097838 L 13.26486 5.205405 L 11.91838 7.714595 L 12.43514 8.201081 L 13.16378 7.701622 L 13.32595 5.451351 L 14.24703 5.161081 L 13.80703 5.883243 L 15.17297 5.109189 L 15.64811 5.218919 L 15.69568 5.445946 L 14.82649 5.601081 L 16.46811 6.999459 L 17.10541 8.092973 L 16.27946 9.000541 L 16.41189 9.153514 L 15.81081 10.10595 L 15.66541 10.09622 L 15.3573 10.26108 L 13.94108 9.371351 L 15.36378 8.20973 L 15.15135 7.74 L 13.79784 6.884865 L 13.3627 8.110811 L 10.42703 10.38757 L 9.466486 11.83027 L 10.28162 12.75892 L 11.6027 13.36703 L 12.15892 13.86649 L 13.31405 10.91189 L 13.75946 10.4827 L 15.74 11.43784 L 15.96703 11.40595 L 17.59405 15.33622 L 17.10541 15.52108 L 16.50054 15.49027 L 16.30432 15.22865 L 16.57676 15.03676 L 16.72973 14.8373 L 16.76324 14.62811 L 16.67459 14.40703 L 14.19351 15.11081 L 15.17027 15.83189 L 15.71838 15.90162 L 11.94486 18.00432 L 10.23459 20.49297 L 10.24595 21.80162 L 9.614595 21.65189 L 9.315135 20.79459 L 7.275676 20.41514 L 6.457838 20.86973 L 5.77027 21.80432 L 5.635135 22.31027 L 5.711892 22.92703 L 6.104324 23.34811 L 7.198378 22.82216 L 7.548108 22.86324 L 8.881081 25.11189 L 13.27027 25.26054 L 15.13892 25.96973 L 16.65622 27.95676 L 19.24595 28.72541 L 20.14973 29.39459 L 18.99514 33.16703 L 18.99514 33.16703 Z M 12.89676 9.773514 L 12.66 9.922162 L 11.90757 9.918919 L 11.79622 9.801622 L 12.41189 9.028649 L 12.57784 9.068649 L 12.74432 9.309189 L 12.89676 9.773514 L 12.89676 9.773514 Z M 19.61676 10.2773 L 19.20432 9.094595 L 19.36 7.974054 L 20.00919 6.45027 L 19.63027 3.917838 L 18.32108 3.748108 L 18.13514 3.409189 L 18.22919 2.949189 L 18.70919 2.26 L 18.94486 2.132432 C 19.25243 2.113514 19.55622 2.081622 19.86703 2.078378 C 22.23081 2.061622 24.48162 2.511351 26.55514 3.318378 L 25.36 6.52 L 20.26595 10.92595 L 19.61676 10.2773 L 19.61676 10.2773 Z M 37.42162 24.93676 C 36.31189 28.98324 33.83838 32.46324 30.51405 34.84595 L 28.07189 26.65892 L 26.78919 26.29243 L 23.94486 26.30216 L 22.22378 25.28757 L 22.32108 23.27297 L 24.63081 18.73243 L 24.51784 17.7827 L 24.63514 17.00649 L 26.1427 16.40703 L 26.04757 15.98054 L 25.76595 15.50919 L 25.74054 15.17784 L 29.22757 12.60757 L 29.22757 12.11568 L 27.98595 11.16162 L 27.86216 10.69622 L 30.5027 7.112973 L 31.50865 6.680541 L 32.06054 6.716216 C 32.7173 7.305946 33.34324 7.92973 33.90703 8.608108 L 33.66649 8.681081 L 34.32108 9.352432 L 34.43514 9.304865 C 35.97243 11.34486 37.10108 13.71351 37.66162 16.3 L 37.62703 16.43189 L 37.72432 16.62811 C 37.94054 17.72486 38.06757 18.85946 38.07892 20.02216 C 38.08973 21.65892 37.86486 23.24054 37.46865 24.75027 L 37.32919 24.83676 L 37.42162 24.93676 L 37.42162 24.93676 Z" stroke-miterlimit="10"/></g><g><path fill="#676767" stroke="rbga(0,0,0,0)" d="M 34.89946 18.62541 L 32.19405 17.89027 L 31.92162 17.55946 L 31.97514 18.34649 L 31.90541 18.40757 L 29.78649 16.19568 L 29.78378 16.21135 L 29.44378 16.29405 L 29.38649 16.21243 L 29.48919 16.63892 L 30.32432 17.25027 L 30.38757 17.69676 L 30.22378 17.97135 L 30.10324 18.06 L 29.95135 18.11514 L 29.15568 16.8627 L 27.95838 16.87027 L 25.46162 18.72378 L 28.7373 18.60324 L 30.21838 19.94649 L 30.92378 20.19351 L 34.85514 19.40432 L 34.89946 18.62541 Z" stroke-miterlimit="10"/></g></g></g></g></g><g transform="matrix(1,0,0,1,325.5,85.5)"><g transform="translate(0,0)"><g transform="translate(-391,-92) translate(65.5,6.5) matrix(1,0,0,1,0,0)"><g><path fill="none" stroke="#000000" d="M 330 90 L 435.07616285342743 90" stroke-miterlimit="10" stroke-width="2"/></g></g></g></g><g transform="matrix(1,0,0,1,135.29309367425446,85.5)"><g transform="translate(0,0)"><g transform="translate(-143,-95) translate(7.7069063257455355,9.5) matrix(1,0,0,1,0,0)"><g><path fill="none" stroke="#000000" d="M 139.79309367425446 90 L 142.32757806187874 90 Q 144.862062449503 90 147.39654683712723 90 L 147.39654683712723 90 Q 149.93103122475148 90 152.46551561237573 90 L 155 90" stroke-miterlimit="10" stroke-width="2"/></g></g></g></g><g transform="matrix(1,0,0,1,440,134)"><g transform="translate(32,0) matrix(1,0,0,1,0,0) translate(-32,0)"><g><rect fill="rgb(0,0,0)" stroke="none" x="0" y="0" width="72" height="14" fill-opacity="0"/></g></g><g transform="translate(32,0) matrix(1,0,0,1,0,0) translate(-32,0)"><g><rect fill="rgb(0,0,0)" stroke="none" x="0" y="0" width="72" height="14" fill-opacity="0"/></g></g><g transform="translate(32,0) matrix(1,0,0,1,0,0) translate(-32,0)"><g><rect fill="rgb(0,0,0)" stroke="none" x="16" y="0" width="40" height="14" fill-opacity="0"/></g></g><g transform="translate(32,0) matrix(1,0,0,1,0,0) translate(-32,0)"><g><rect fill="rgb(0,0,0)" stroke="none" x="16" y="0" width="40" height="14" fill-opacity="0"/></g><text fill="rgb(0, 0, 0)" stroke="none" font-family="Arial" font-size="12px" font-style="normal" font-weight="normal" text-decoration="" line-height="14px" x="16" y="12">Internet</text></g></g><g transform="translate(0,0) matrix(1,0,0,1,46,38) scale(1,1) translate(0,0)"><g transform="translate(0,0) scale(1,1)"><g transform="translate(100,100) translate(0,0) rotate(180.00001984784282,0,0) translate(0,0)"><path fill="rgb(0,0,0)" stroke="rgb(0,0,0)" d="M 0 0 L 100 0 Q 100 0 100 0 L 100 100 Q 100 100 100 100 L 0 100 Q 0 100 0 100 L 0 0 Q 0 0 0 0 Z" fill-opacity="0" stroke-opacity="0" stroke-miterlimit="10"/></g><g transform="matrix(1.817687,0,0,1.924421,-41.0962,-43.85009)"><path fill="#20c2ef" stroke="#394d54" d="M 72.5 61.202 L 50 73.067 L 27.5 61.202 L 27.5 35.273 L 50 25.012 L 72.5 35.273 L 72.5 61.202 Z" stroke-linejoin="round" stroke-miterlimit="10" stroke-width="3"/></g><g transform="matrix(1.817687,0,0,1.924421,-41.0962,-43.85009)"><path fill="#20c2ef" stroke="#394d54" d="M 50 46.523 L 50 73.067 L 72.5 61.202 L 72.5 35.273 L 50 46.523 Z" stroke-linejoin="round" stroke-miterlimit="10"/></g><g transform="matrix(1.817687,0,0,1.924421,-41.0962,-43.85009)"><path fill="#20c2ef" stroke="#394d54" d="M 50 25.012 L 27.5 35.273 L 50 46.523 L 72.5 35.273 L 50 25.012 Z" stroke-linejoin="round" stroke-miterlimit="10"/></g><g transform="matrix(1.817687,0,0,1.924421,-41.0962,-43.85009)"><path fill="#ffffff" stroke="rgb(0,0,0)" d="M 28.665 35.31 L 50 25.563 L 71.338 35.292 L 70.423 35.754 L 50 26.44 L 29.601 35.743 L 28.665 35.31 Z" opacity="0.3" stroke-opacity="0" stroke-miterlimit="10"/></g><g transform="matrix(1.817687,0,0,1.924421,-41.0962,-43.85009)"><path fill="#ffffff" stroke="rgb(0,0,0)" d="M 50.5 47.717 L 50.49 46.843 L 71.996 36.09 L 71.996 36.969 L 50.5 47.717 Z" opacity="0.3" stroke-opacity="0" stroke-miterlimit="10"/></g><g transform="matrix(1.817687,0,0,1.924421,-41.0962,-43.85009)"><path fill="#0eacd1" stroke="#394d54" d="M 50 46.523 L 50 73.067 L 27.5 61.202 L 27.5 35.273 L 50 46.523 Z" stroke-linejoin="round" stroke-miterlimit="10"/></g><g transform="matrix(1.817687,0,0,1.924421,-41.0962,-43.85009)"><path fill="#0eacd1" stroke="#394d54" d="M 68.432 41.203 L 65.781 42.604 L 65.781 61.466 L 68.432 60.068 L 68.432 41.203 Z" stroke-linejoin="round" stroke-miterlimit="10" stroke-width="0.5"/></g><g transform="matrix(1.817687,0,0,1.924421,-41.0962,-43.85009)"><path fill="#0eacd1" stroke="#394d54" d="M 63.076 43.94 L 60.425 45.341 L 60.425 64.203 L 63.076 62.805 L 63.076 43.94 Z" stroke-linejoin="round" stroke-miterlimit="10" stroke-width="0.5"/></g><g transform="matrix(1.817687,0,0,1.924421,-41.0962,-43.85009)"><path fill="#0eacd1" stroke="#394d54" d="M 57.721 46.903 L 55.069 48.304 L 55.069 67.166 L 57.721 65.768 L 57.721 46.903 Z" stroke-linejoin="round" stroke-miterlimit="10" stroke-width="0.5"/></g><g transform="matrix(1.817687,0,0,1.924421,-41.0962,-43.85009)"><path fill="#000000" stroke="rgb(0,0,0)" d="M 67.45 60.306 L 67.448 42.856 L 67.448 42.856 L 66.035 43.521 L 66.035 42.753 L 68.182 41.629 L 68.182 59.918 L 67.45 60.306 Z" opacity="0.12" stroke-opacity="0" stroke-miterlimit="10"/></g><g transform="matrix(1.817687,0,0,1.924421,-41.0962,-43.85009)"><path fill="#000000" stroke="rgb(0,0,0)" d="M 62.121 63.018 L 62.119 45.59 L 62.119 45.59 L 60.671 46.271 L 60.671 45.494 L 62.829 44.347 L 62.829 62.659 L 62.121 63.018 Z" opacity="0.12" stroke-opacity="0" stroke-miterlimit="10"/></g><g transform="matrix(1.817687,0,0,1.924421,-41.0962,-43.85009)"><path fill="#000000" stroke="rgb(0,0,0)" d="M 56.765 65.98 L 56.763 48.558 L 56.763 48.559 L 55.318 49.239 L 55.318 48.459 L 57.471 47.312 L 57.471 65.618 L 56.765 65.98 Z" opacity="0.12" stroke-opacity="0" stroke-miterlimit="10"/></g><g transform="matrix(1.817687,0,0,1.924421,-41.0962,-43.85009)"><path fill="#000000" stroke="rgb(0,0,0)" d="M 49.516 47.717 L 31.984 63 L 28 60.906 L 28 36.094 L 49.516 46.859 L 49.516 47.717 Z" opacity="0.05" stroke-opacity="0" stroke-miterlimit="10"/></g></g></g><g transform="matrix(1,0,0,1,67,140)"><g transform="translate(6,0) matrix(1,0,0,1,0,0) translate(-6,0)"><g><rect fill="rgb(0,0,0)" stroke="none" x="0" y="0" width="58" height="14" fill-opacity="0"/></g></g><g transform="translate(6,0) matrix(1,0,0,1,0,0) translate(-6,0)"><g><rect fill="rgb(0,0,0)" stroke="none" x="0" y="0" width="58" height="14" fill-opacity="0"/></g></g><g transform="translate(6,0) matrix(1,0,0,1,0,0) translate(-6,0)"><g><rect fill="rgb(0,0,0)" stroke="none" x="3" y="0" width="52" height="14" fill-opacity="0"/></g></g><g transform="translate(6,0) matrix(1,0,0,1,0,0) translate(-6,0)"><g><rect fill="rgb(0,0,0)" stroke="none" x="3" y="0" width="52" height="14" fill-opacity="0"/></g><text fill="rgb(0, 0, 0)" stroke="none" font-family="Arial" font-size="12px" font-style="normal" font-weight="normal" text-decoration="" line-height="14px" x="3" y="12">Container</text></g></g></g></svg>